<svg width="36" height="66" xmlns="http://www.w3.org/2000/svg" xmlns:xlink="http://www.w3.org/1999/xlink" xml:space="preserve" overflow="hidden"><defs><clipPath id="clip0"><rect x="19" y="20" width="36" height="66"/></clipPath></defs><g clip-path="url(#clip0)" transform="translate(-19 -20)"><path d="M9.22927 36.6756C8.29024 36.6756 8.3439 37.9366 9.20244 37.9366L21.9463 37.9366C22.8049 37.9366 22.8317 36.6756 21.9195 36.6756L9.22927 36.6756 9.22927 36.6756Z" fill="#FFFFFF" transform="matrix(1.00889 0 0 1 19 20.0671)"/><path d="M9.79268 32.1951C8.85366 32.1951 8.90732 33.4561 9.76585 33.4561L21.1951 33.4561C22.0537 33.4561 22.0805 32.1951 21.1683 32.1951L9.79268 32.1951 9.79268 32.1951Z" fill="#FFFFFF" transform="matrix(1.00889 0 0 1 19 20.0671)"/><path d="M8.45122 34.0463C7.02927 34.0463 6.97561 36.0585 8.45122 36.0585L22.6439 36.0585C24.0927 36.0585 24.0659 34.0463 22.6439 34.0463L8.50488 34.0463 8.45122 34.0463Z" fill="#FFFFFF" transform="matrix(1.00889 0 0 1 19 20.0671)"/><path d="M9.73902 38.5268 21.1683 38.5268 24.3878 56.3951 18.9683 52.2902 15.4537 56.3951 11.8854 52.2902 6.49268 56.3683Z" fill="#FFFFFF" transform="matrix(1.00889 0 0 1 19 20.0671)"/><path d="M8.02195 25.5146C8.02195 25.5146 9.47073 25.8366 9.41707 27.822 9.41707 27.822 9.4439 30.9073 5.76829 30.9878 5.76829 30.9878 0.402439 31.1756 0.536585 25.622 0.536585 25.622 0.214634 19.022 8.98781 18.7268 8.98781 18.7268 14.8634 18.4049 18.0293 23.8512 18.0293 23.8512 20.1488 27.5805 20.0415 31.6585L11 31.6585C11.3488 30.7195 11.4561 28.6268 11.4561 28.6268 11.2146 23.9854 7.7 24.2 7.7 24.2 4.93659 24.0659 4.80244 26.4 4.80244 26.4 4.80244 26.4 4.69512 27.9024 5.9561 27.9561 5.9561 27.9561 6.73415 27.9561 6.73415 27.2854 6.73415 27.2854 6.73415 26.8024 6.1439 26.8024 6.1439 26.8024 5.76829 26.8024 5.71463 27.0171 5.71463 27.0171 5.55366 25.4341 7.29756 25.4341 7.29756 25.4341 7.64634 25.4341 7.99512 25.5683" fill="#FFFFFF" transform="matrix(1.00889 0 0 1 19 20.0671)"/><path d="M33.7244-0.134146 35.6024-0.134146 35.6024 65.839 33.7244 65.839Z" fill="#FFFFFF" transform="matrix(1.00889 0 0 1 19 20.0671)"/></g></svg>