<svg viewBox="0 0 133 245.5" xmlns="http://www.w3.org/2000/svg" xmlns:xlink="http://www.w3.org/1999/xlink" id="Ebene_1" xml:space="preserve" overflow="hidden"><style>
.MsftOfcThm_Accent4_lumMod_40_lumOff_60_Fill_v2 {
 fill:#D4B1D8; 
}
</style>
<g><path d="M34.4 136.7C30.9 136.7 31.1 141.4 34.3 141.4L81.8 141.4C85 141.4 85.1 136.7 81.7 136.7L34.4 136.7 34.4 136.7Z" class="MsftOfcThm_Accent4_lumMod_40_lumOff_60_Fill_v2" stroke="none" stroke-width="1" stroke-linecap="butt" stroke-linejoin="miter" stroke-miterlimit="4" fill="#D4B1D8" fill-opacity="1"/><path d="M36.5 120C33 120 33.2 124.7 36.4 124.7L79 124.7C82.2 124.7 82.3 120 78.9 120L36.5 120 36.5 120Z" class="MsftOfcThm_Accent4_lumMod_40_lumOff_60_Fill_v2" stroke="none" stroke-width="1" stroke-linecap="butt" stroke-linejoin="miter" stroke-miterlimit="4" fill="#D4B1D8" fill-opacity="1"/><path d="M31.5 126.9C26.2 126.9 26 134.4 31.5 134.4L84.4 134.4C89.8 134.4 89.7 126.9 84.4 126.9L31.7 126.9 31.5 126.9Z" class="MsftOfcThm_Accent4_lumMod_40_lumOff_60_Fill_v2" stroke="none" stroke-width="1" stroke-linecap="butt" stroke-linejoin="miter" stroke-miterlimit="4" fill="#D4B1D8" fill-opacity="1"/></g><path d="M36.3 143.6 78.9 143.6 90.9 210.2 70.7 194.9 57.6 210.2 44.3 194.9 24.2 210.1Z" class="MsftOfcThm_Accent4_lumMod_40_lumOff_60_Fill_v2" stroke="none" stroke-width="1" stroke-linecap="butt" stroke-linejoin="miter" stroke-miterlimit="4" fill="#D4B1D8" fill-opacity="1"/><path d="M29.9 95.1C29.9 95.1 35.3 96.3 35.1 103.7 35.1 103.7 35.2 115.2 21.5 115.5 21.5 115.5 1.5 116.2 2 95.5 2 95.5 0.8 70.9 33.5 69.8 33.5 69.8 55.4 68.6 67.2 88.9 67.2 88.9 75.1 102.8 74.7 118L41 118C42.3 114.5 42.7 106.7 42.7 106.7 41.8 89.4 28.7 90.2 28.7 90.2 18.4 89.7 17.9 98.4 17.9 98.4 17.9 98.4 17.5 104 22.2 104.2 22.2 104.2 25.1 104.2 25.1 101.7 25.1 101.7 25.1 99.9 22.9 99.9 22.9 99.9 21.5 99.9 21.3 100.7 21.3 100.7 20.7 94.8 27.2 94.8 27.2 94.8 28.5 94.8 29.8 95.3" class="MsftOfcThm_Accent4_lumMod_40_lumOff_60_Fill_v2" stroke="none" stroke-width="1" stroke-linecap="butt" stroke-linejoin="miter" stroke-miterlimit="4" fill="#D4B1D8" fill-opacity="1"/><rect x="125.7" y="-0.5" width="7" height="245.9" class="MsftOfcThm_Accent4_lumMod_40_lumOff_60_Fill_v2" stroke="none" stroke-width="1" stroke-linecap="butt" stroke-linejoin="miter" stroke-miterlimit="4" fill="#D4B1D8" fill-opacity="1"/></svg>