<svg width="79" height="79" xmlns="http://www.w3.org/2000/svg" xmlns:xlink="http://www.w3.org/1999/xlink" xml:space="preserve" overflow="hidden"><g transform="translate(-1153 -594)"><path d="M1165.04 594C1158.37 594 1153 599.373 1153 606.039L1153 660.961C1153 667.627 1158.37 673 1165.04 673L1219.96 673C1226.63 673 1232 667.627 1232 660.961L1232 606.039C1232 599.373 1226.63 594 1219.96 594L1165.04 594Z" fill="#0884C1"/><path d="M1178.07 611.312 1178.07 631.809 1174.19 631.809 1174.19 629.819C1173.1 631.411 1171.31 632.207 1169.32 632.207 1165.44 632.207 1162.65 629.122 1162.65 624.545 1162.65 619.969 1165.34 616.884 1169.22 616.884 1171.31 616.884 1173 617.78 1174.19 619.372L1174.19 611.412 1178.07 611.412ZM1166.63 624.545C1166.63 626.834 1168.22 628.426 1170.51 628.426 1172.8 628.426 1174.29 626.834 1174.29 624.545 1174.29 622.157 1172.7 620.665 1170.51 620.665 1168.22 620.665 1166.63 622.157 1166.63 624.545Z" fill="#FFFFFF"/><path d="M1181.06 620.167C1181.95 618.078 1184.24 616.785 1187.62 616.785 1192 616.785 1194.09 618.775 1194.09 622.754L1194.09 631.809 1190.21 631.809 1190.21 629.819C1189.32 631.212 1187.62 632.107 1185.73 632.107 1182.85 632.107 1180.76 630.217 1180.76 627.53 1180.76 624.943 1182.65 623.152 1185.44 622.953L1189.42 622.555C1189.91 622.456 1190.21 622.356 1190.21 621.958L1190.21 621.859C1190.21 620.964 1189.32 620.367 1187.62 620.367 1185.73 620.367 1184.44 621.063 1183.94 622.257L1181.06 620.167ZM1190.11 625.341 1186.43 625.739C1185.34 625.839 1184.64 626.436 1184.64 627.331 1184.64 628.326 1185.44 628.923 1186.73 628.923 1188.62 628.923 1190.11 627.53 1190.11 625.839L1190.11 625.341Z" fill="#FFFFFF"/><path d="M1205.93 631.51C1204.84 631.809 1203.74 632.008 1202.75 632.008 1200.06 632.008 1198.47 630.714 1198.47 627.331L1198.47 620.367 1195.78 620.367 1195.78 617.083 1198.47 617.083 1198.47 613.203 1202.35 613.203 1202.35 617.083 1206.03 617.083 1206.03 620.367 1202.35 620.367 1202.35 626.834C1202.35 627.729 1202.85 628.127 1203.84 628.127 1204.44 628.127 1204.94 628.028 1205.93 627.928L1205.93 631.51Z" fill="#FFFFFF"/><path d="M1208.52 620.167C1209.41 618.078 1211.7 616.785 1215.09 616.785 1219.46 616.785 1221.55 618.775 1221.55 622.754L1221.55 631.809 1217.67 631.809 1217.67 629.819C1216.78 631.212 1215.09 632.107 1213.2 632.107 1210.31 632.107 1208.22 630.217 1208.22 627.53 1208.22 624.943 1210.11 623.152 1212.9 622.953L1216.88 622.555C1217.37 622.456 1217.67 622.356 1217.67 621.958L1217.67 621.859C1217.67 620.964 1216.78 620.367 1215.09 620.367 1213.2 620.367 1211.9 621.063 1211.4 622.257L1208.52 620.167ZM1217.57 625.341 1213.89 625.739C1212.8 625.839 1212.1 626.436 1212.1 627.331 1212.1 628.326 1212.9 628.923 1214.19 628.923 1216.08 628.923 1217.57 627.53 1217.57 625.839L1217.57 625.341Z" fill="#FFFFFF"/><path d="M1170.61 649.618C1170.61 651.21 1169.42 652.404 1167.82 652.404 1166.23 652.404 1165.04 651.21 1165.04 649.618 1165.04 648.026 1166.23 646.833 1167.82 646.833 1169.32 646.833 1170.61 648.026 1170.61 649.618Z" fill="#FDC603"/><path d="M1178.07 631.809 1178.07 639.768C1179.17 638.176 1180.96 637.281 1182.95 637.281 1186.83 637.281 1189.61 640.465 1189.61 644.942 1189.61 649.519 1186.93 652.603 1182.95 652.603 1180.96 652.603 1179.17 651.807 1178.07 650.215L1178.07 652.305 1174.19 652.305 1174.19 631.809 1178.07 631.809ZM1181.85 641.161C1179.57 641.161 1177.97 642.753 1177.97 645.042 1177.97 647.429 1179.57 648.922 1181.85 648.922 1184.14 648.922 1185.73 647.33 1185.73 645.042 1185.63 642.753 1184.04 641.161 1181.85 641.161Z" fill="#FDC603"/><path d="M1197.97 637.38C1200.56 637.38 1202.45 638.176 1203.84 639.569L1201.65 642.355C1200.76 641.36 1199.17 640.863 1197.67 640.863 1196.48 640.863 1195.78 641.261 1195.78 641.858 1195.78 642.554 1196.48 642.753 1199.17 643.35 1201.95 643.947 1203.84 645.042 1203.84 647.927 1203.84 651.111 1201.55 652.703 1197.47 652.703 1194.59 652.703 1192.2 651.807 1191.01 650.315L1193.3 647.429C1194.19 648.524 1195.78 649.32 1197.97 649.32 1199.07 649.32 1199.86 649.021 1199.86 648.225 1199.86 647.429 1199.17 647.33 1196.58 646.733 1194.29 646.236 1191.7 645.241 1191.7 642.057 1191.8 639.072 1194.09 637.38 1197.97 637.38Z" fill="#FDC603"/></g></svg>