<svg viewBox="0 0 79.4 79.4" xmlns="http://www.w3.org/2000/svg" xmlns:xlink="http://www.w3.org/1999/xlink" id="Ebene_1" xml:space="preserve" overflow="hidden"><g><g><path d="M12.1 0C5.4 0 0 5.4 0 12.1L0 67.3C0 74 5.4 79.4 12.1 79.4L67.3 79.4C74 79.4 79.4 74 79.4 67.3L79.4 12.1C79.4 5.4 74 0 67.3 0L12.1 0Z" fill="#0884C1"/></g><g><path d="M25.2 17.4 25.2 38 21.3 38 21.3 36C20.2 37.6 18.4 38.4 16.4 38.4 12.5 38.4 9.7 35.3 9.7 30.7 9.7 26.1 12.4 23 16.3 23 18.4 23 20.1 23.9 21.3 25.5L21.3 17.5 25.2 17.5ZM13.7 30.7C13.7 33 15.3 34.6 17.6 34.6 19.9 34.6 21.4 33 21.4 30.7 21.4 28.3 19.8 26.8 17.6 26.8 15.3 26.8 13.7 28.3 13.7 30.7Z" fill="#FFFFFF"/><path d="M28.2 26.3C29.1 24.2 31.4 22.9 34.8 22.9 39.2 22.9 41.3 24.9 41.3 28.9L41.3 38 37.4 38 37.4 36C36.5 37.4 34.8 38.3 32.9 38.3 30 38.3 27.9 36.4 27.9 33.7 27.9 31.1 29.8 29.3 32.6 29.1L36.6 28.7C37.1 28.6 37.4 28.5 37.4 28.1L37.4 28C37.4 27.1 36.5 26.5 34.8 26.5 32.9 26.5 31.6 27.2 31.1 28.4L28.2 26.3ZM37.3 31.5 33.6 31.9C32.5 32 31.8 32.6 31.8 33.5 31.8 34.5 32.6 35.1 33.9 35.1 35.8 35.1 37.3 33.7 37.3 32L37.3 31.5Z" fill="#FFFFFF"/></g><g><path d="M53.2 37.7C52.1 38 51 38.2 50 38.2 47.3 38.2 45.7 36.9 45.7 33.5L45.7 26.5 43 26.5 43 23.2 45.7 23.2 45.7 19.3 49.6 19.3 49.6 23.2 53.3 23.2 53.3 26.5 49.6 26.5 49.6 33C49.6 33.9 50.1 34.3 51.1 34.3 51.7 34.3 52.2 34.2 53.2 34.1L53.2 37.7Z" fill="#FFFFFF"/></g><g><path d="M55.8 26.3C56.7 24.2 59 22.9 62.4 22.9 66.8 22.9 68.9 24.9 68.9 28.9L68.9 38 65 38 65 36C64.1 37.4 62.4 38.3 60.5 38.3 57.6 38.3 55.5 36.4 55.5 33.7 55.5 31.1 57.4 29.3 60.2 29.1L64.2 28.7C64.7 28.6 65 28.5 65 28.1L65 28C65 27.1 64.1 26.5 62.4 26.5 60.5 26.5 59.2 27.2 58.7 28.4L55.8 26.3ZM64.9 31.5 61.2 31.9C60.1 32 59.4 32.6 59.4 33.5 59.4 34.5 60.2 35.1 61.5 35.1 63.4 35.1 64.9 33.7 64.9 32L64.9 31.5Z" fill="#FFFFFF"/></g><g><path d="M17.7 55.9C17.7 57.5 16.5 58.7 14.9 58.7 13.3 58.7 12.1 57.5 12.1 55.9 12.1 54.3 13.3 53.1 14.9 53.1 16.4 53.1 17.7 54.3 17.7 55.9Z" fill="#FDC603"/><path d="M25.2 38 25.2 46C26.3 44.4 28.1 43.5 30.1 43.5 34 43.5 36.8 46.7 36.8 51.2 36.8 55.8 34.1 58.9 30.1 58.9 28.1 58.9 26.3 58.1 25.2 56.5L25.2 58.6 21.3 58.6 21.3 38 25.2 38ZM29 47.4C26.7 47.4 25.1 49 25.1 51.3 25.1 53.7 26.7 55.2 29 55.2 31.3 55.2 32.9 53.6 32.9 51.3 32.8 49 31.2 47.4 29 47.4Z" fill="#FDC603"/><path d="M45.2 43.6C47.8 43.6 49.7 44.4 51.1 45.8L48.9 48.6C48 47.6 46.4 47.1 44.9 47.1 43.7 47.1 43 47.5 43 48.1 43 48.8 43.7 49 46.4 49.6 49.2 50.2 51.1 51.3 51.1 54.2 51.1 57.4 48.8 59 44.7 59 41.8 59 39.4 58.1 38.2 56.6L40.5 53.7C41.4 54.8 43 55.6 45.2 55.6 46.3 55.6 47.1 55.3 47.1 54.5 47.1 53.7 46.4 53.6 43.8 53 41.5 52.5 38.9 51.5 38.9 48.3 39 45.3 41.3 43.6 45.2 43.6Z" fill="#FDC603"/></g></g></svg>